<svg width="157" height="35" viewBox="0 0 157 35" fill="none" xmlns="http://www.w3.org/2000/svg">
<g clip-path="url(#clip0_441_15776)">
<path d="M151.555 14.7182C153.73 14.7182 155.21 15.2708 155.21 15.2708C156.168 14.3774 156.734 12.8891 156.734 11.4855C156.734 11.4855 155.124 10.3804 150.64 10.3804C143.981 10.3804 140.848 14.4198 140.848 21.9884C140.848 29.5571 143.981 33.5984 150.64 33.5984C155.297 33.5984 157.169 32.2796 157.169 32.2796C157.126 30.8336 156.56 29.3029 155.646 28.4943C155.646 28.4943 153.949 29.0892 151.728 29.0892C148.029 29.0892 146.462 27.0483 146.462 21.9884C146.462 16.9286 147.812 14.7182 151.555 14.7182ZM136.017 11.1447C136.017 11.1447 135.059 10.8039 133.276 10.8039C131.36 10.8039 130.535 11.1447 130.535 11.1447V32.8321C130.535 32.8321 131.362 33.1729 133.276 33.1729C135.061 33.1729 136.017 32.8321 136.017 32.8321V11.1447ZM136.017 2.17249C136.017 2.17249 135.059 1.8317 133.276 1.8317C131.36 1.8317 130.535 2.17249 130.535 2.17249V7.06294C130.535 7.06294 131.362 7.40373 133.276 7.40373C135.061 7.40373 136.017 7.06294 136.017 7.06294V2.17249ZM124.918 16.8438C124.918 13.0162 122.567 10.3804 118.085 10.3804C115.691 10.3804 113.645 11.06 112.122 12.4213V11.1447C112.122 11.1447 111.164 10.8039 109.381 10.8039C107.465 10.8039 106.639 11.1447 106.639 11.1447V32.8321C106.639 32.8321 107.467 33.1729 109.381 33.1729C111.164 33.1729 112.122 32.8321 112.122 32.8321V16.2913C113.166 15.3132 114.516 14.7182 115.953 14.7182C118.434 14.7182 119.435 15.9505 119.435 17.7796V32.8321C119.435 32.8321 120.263 33.1729 122.177 33.1729C123.962 33.1729 124.918 32.8321 124.918 32.8321V16.8438ZM100.891 11.1447C100.891 11.1447 99.9328 10.8039 98.1492 10.8039C96.2337 10.8039 95.4079 11.1447 95.4079 11.1447V32.8321C95.4079 32.8321 96.2356 33.1729 98.1492 33.1729C99.9347 33.1729 100.891 32.8321 100.891 32.8321V11.1447ZM100.891 2.17249C100.891 2.17249 99.9328 1.8317 98.1492 1.8317C96.2337 1.8317 95.4079 2.17249 95.4079 2.17249V7.06294C95.4079 7.06294 96.2356 7.40373 98.1492 7.40373C99.9347 7.40373 100.891 7.06294 100.891 7.06294V2.17249ZM89.5311 1.61991C89.5311 1.61991 88.5734 1.27911 86.7898 1.27911C84.8743 1.27911 84.0485 1.61991 84.0485 1.61991V32.8321C84.0485 32.8321 84.8762 33.1729 86.7898 33.1729C88.5753 33.1729 89.5311 32.8321 89.5311 32.8321V1.61991ZM58.7598 17.8643C58.7598 28.1131 63.33 33.5984 71.9481 33.5984C76.9972 33.5984 79.9139 32.1101 79.9139 32.1101C79.9139 30.5371 79.3483 28.9641 78.2604 27.986C78.2604 27.986 75.6925 28.8794 72.559 28.8794C67.9455 28.8794 64.5933 26.7114 64.5933 17.9086C64.5933 9.10576 67.9455 6.76643 72.559 6.76643C75.3437 6.76643 77.8249 7.6598 77.8249 7.6598C78.826 6.597 79.6084 5.36283 79.4783 3.62037C79.4783 3.62037 76.7804 2.13205 71.9481 2.13205C63.33 2.13013 58.7598 7.61552 58.7598 17.8643ZM53.7541 11.1447C53.7541 11.1447 52.7963 10.8039 51.0128 10.8039C49.0972 10.8039 48.2715 11.1447 48.2715 11.1447V32.8321C48.2715 32.8321 49.0992 33.1729 51.0128 33.1729C52.7963 33.1729 53.7541 32.8321 53.7541 32.8321V11.1447ZM53.7541 2.17249C53.7541 2.17249 52.7963 1.8317 51.0128 1.8317C49.0972 1.8317 48.2715 2.17249 48.2715 2.17249V7.06294C48.2715 7.06294 49.0992 7.40373 51.0128 7.40373C52.7963 7.40373 53.7541 7.06294 53.7541 7.06294V2.17249Z" fill="white"/>
<path opacity="0.5" d="M35.0816 23.6443H1.06443C0.522468 23.6443 0.0849609 23.2149 0.0849609 22.6874V12.3577C0.0849609 11.8282 0.524439 11.4008 1.06443 11.4008H35.0816C35.6236 11.4008 36.0611 11.8302 36.0611 12.3577V22.6874C36.0611 23.2149 35.6216 23.6443 35.0816 23.6443Z" fill="white"/>
<path d="M24.773 34.7671H14.1723C13.6264 34.7671 13.1849 34.3262 13.2027 33.7929C13.2973 30.8991 13.8195 28.1573 14.7556 25.6312C15.8238 22.7509 17.4043 20.2094 19.4578 18.078C21.5409 15.9139 24.0418 14.2388 26.8915 13.099C29.418 12.0881 32.1593 11.524 35.0564 11.4181C35.6062 11.3988 36.0654 11.8282 36.0654 12.3654V22.7258C36.0654 23.2284 35.6633 23.6385 35.1509 23.6731C32.4451 23.8464 30.1906 24.8033 28.5903 26.4649C26.8777 28.244 25.9022 30.7912 25.7445 33.8699C25.715 34.3724 25.2873 34.7671 24.773 34.7671Z" fill="white"/>
<path d="M0.0849609 22.6776V12.3153C0.0849609 11.8166 0.481088 11.4045 0.989542 11.3699C3.70327 11.1812 5.93416 10.1299 7.63098 8.2373C9.314 6.36006 10.3132 3.81857 10.4886 1.00559C10.5201 0.503068 10.9418 0.110291 11.4562 0.110291H22.0608C22.6087 0.110291 23.0502 0.553127 23.0304 1.08646C22.8176 6.85296 20.7148 12.2267 17.0591 16.3046C14.9917 18.6112 12.5125 20.4153 9.68844 21.6687C7.03187 22.849 4.14669 23.5055 1.09793 23.623C0.544149 23.6461 0.0849609 23.2167 0.0849609 22.6776Z" fill="white"/>
</g>
<defs>
<clipPath id="clip0_441_15776">
<rect width="157" height="35" fill="white"/>
</clipPath>
</defs>
</svg>
